<mxfile host="app.diagrams.net" agent="Mozilla/5.0 (Windows NT 10.0; Win64; x64; rv:131.0) Gecko/20100101 Firefox/131.0" version="24.7.17">
  <diagram id="R2lEEEUBdFMjLlhIrx00" name="Page-1">
    <mxGraphModel grid="1" page="1" gridSize="10" guides="1" tooltips="1" connect="1" arrows="1" fold="1" pageScale="1" pageWidth="850" pageHeight="1100" math="0" shadow="0" extFonts="Permanent Marker^https://fonts.googleapis.com/css?family=Permanent+Marker">
      <root>
        <mxCell id="0" />
        <mxCell id="1" parent="0" />
        <mxCell id="NHeWaSwUiM2406PgDpy3-2" value="Vivero" style="whiteSpace=wrap;html=1;align=center;" vertex="1" parent="1">
          <mxGeometry x="140" y="170" width="100" height="40" as="geometry" />
        </mxCell>
        <mxCell id="NHeWaSwUiM2406PgDpy3-4" value="&lt;u&gt;Georreferenciación zona&lt;/u&gt;" style="ellipse;whiteSpace=wrap;html=1;align=center;" vertex="1" parent="1">
          <mxGeometry x="447.5" y="70" width="115" height="55" as="geometry" />
        </mxCell>
        <mxCell id="NHeWaSwUiM2406PgDpy3-5" value="Latitud" style="ellipse;whiteSpace=wrap;html=1;align=center;" vertex="1" parent="1">
          <mxGeometry x="455" width="100" height="40" as="geometry" />
        </mxCell>
        <mxCell id="NHeWaSwUiM2406PgDpy3-6" value="Longitud" style="ellipse;whiteSpace=wrap;html=1;align=center;" vertex="1" parent="1">
          <mxGeometry x="570" width="100" height="40" as="geometry" />
        </mxCell>
        <mxCell id="NHeWaSwUiM2406PgDpy3-11" value="" style="endArrow=none;html=1;rounded=0;exitX=0.5;exitY=1;exitDx=0;exitDy=0;entryX=0.5;entryY=0;entryDx=0;entryDy=0;" edge="1" parent="1" source="NHeWaSwUiM2406PgDpy3-6" target="NHeWaSwUiM2406PgDpy3-4">
          <mxGeometry relative="1" as="geometry">
            <mxPoint x="400" y="370" as="sourcePoint" />
            <mxPoint x="560" y="370" as="targetPoint" />
          </mxGeometry>
        </mxCell>
        <mxCell id="NHeWaSwUiM2406PgDpy3-12" value="" style="resizable=0;html=1;whiteSpace=wrap;align=right;verticalAlign=bottom;" connectable="0" vertex="1" parent="NHeWaSwUiM2406PgDpy3-11">
          <mxGeometry x="1" relative="1" as="geometry" />
        </mxCell>
        <mxCell id="NHeWaSwUiM2406PgDpy3-13" value="" style="endArrow=none;html=1;rounded=0;exitX=0.5;exitY=1;exitDx=0;exitDy=0;entryX=0.5;entryY=0;entryDx=0;entryDy=0;" edge="1" parent="1" source="NHeWaSwUiM2406PgDpy3-5" target="NHeWaSwUiM2406PgDpy3-4">
          <mxGeometry relative="1" as="geometry">
            <mxPoint x="310" y="20" as="sourcePoint" />
            <mxPoint x="245" y="85" as="targetPoint" />
          </mxGeometry>
        </mxCell>
        <mxCell id="NHeWaSwUiM2406PgDpy3-14" value="" style="resizable=0;html=1;whiteSpace=wrap;align=right;verticalAlign=bottom;" connectable="0" vertex="1" parent="NHeWaSwUiM2406PgDpy3-13">
          <mxGeometry x="1" relative="1" as="geometry" />
        </mxCell>
        <mxCell id="S-kR7vA9aXVw8Hu3PSYM-3" value="Tiene" style="shape=rhombus;perimeter=rhombusPerimeter;whiteSpace=wrap;html=1;align=center;" vertex="1" parent="1">
          <mxGeometry x="355" y="160" width="120" height="60" as="geometry" />
        </mxCell>
        <mxCell id="S-kR7vA9aXVw8Hu3PSYM-4" value="&lt;div&gt;&lt;u&gt;Georreferenciación&lt;/u&gt;&lt;/div&gt;&lt;div&gt;&lt;u&gt;vivero&lt;br&gt;&lt;/u&gt;&lt;/div&gt;" style="ellipse;whiteSpace=wrap;html=1;align=center;" vertex="1" parent="1">
          <mxGeometry x="270" y="70" width="115" height="55" as="geometry" />
        </mxCell>
        <mxCell id="S-kR7vA9aXVw8Hu3PSYM-5" value="Latitud" style="ellipse;whiteSpace=wrap;html=1;align=center;" vertex="1" parent="1">
          <mxGeometry x="220" width="100" height="40" as="geometry" />
        </mxCell>
        <mxCell id="S-kR7vA9aXVw8Hu3PSYM-6" value="" style="endArrow=none;html=1;rounded=0;exitX=0.5;exitY=1;exitDx=0;exitDy=0;entryX=0.5;entryY=0;entryDx=0;entryDy=0;" edge="1" parent="1" source="S-kR7vA9aXVw8Hu3PSYM-10" target="S-kR7vA9aXVw8Hu3PSYM-4">
          <mxGeometry relative="1" as="geometry">
            <mxPoint x="260" y="30" as="sourcePoint" />
            <mxPoint x="90" y="380" as="targetPoint" />
          </mxGeometry>
        </mxCell>
        <mxCell id="S-kR7vA9aXVw8Hu3PSYM-7" value="" style="resizable=0;html=1;whiteSpace=wrap;align=right;verticalAlign=bottom;" connectable="0" vertex="1" parent="S-kR7vA9aXVw8Hu3PSYM-6">
          <mxGeometry x="1" relative="1" as="geometry" />
        </mxCell>
        <mxCell id="S-kR7vA9aXVw8Hu3PSYM-8" value="" style="endArrow=none;html=1;rounded=0;exitX=0.5;exitY=1;exitDx=0;exitDy=0;entryX=0.5;entryY=0;entryDx=0;entryDy=0;" edge="1" parent="1" source="S-kR7vA9aXVw8Hu3PSYM-5" target="S-kR7vA9aXVw8Hu3PSYM-4">
          <mxGeometry relative="1" as="geometry">
            <mxPoint x="-160" y="30" as="sourcePoint" />
            <mxPoint x="-225" y="95" as="targetPoint" />
          </mxGeometry>
        </mxCell>
        <mxCell id="S-kR7vA9aXVw8Hu3PSYM-9" value="" style="resizable=0;html=1;whiteSpace=wrap;align=right;verticalAlign=bottom;" connectable="0" vertex="1" parent="S-kR7vA9aXVw8Hu3PSYM-8">
          <mxGeometry x="1" relative="1" as="geometry" />
        </mxCell>
        <mxCell id="S-kR7vA9aXVw8Hu3PSYM-10" value="Longitud" style="ellipse;whiteSpace=wrap;html=1;align=center;" vertex="1" parent="1">
          <mxGeometry x="330" width="100" height="40" as="geometry" />
        </mxCell>
        <mxCell id="S-kR7vA9aXVw8Hu3PSYM-11" value="Empleado" style="whiteSpace=wrap;html=1;align=center;" vertex="1" parent="1">
          <mxGeometry x="140" y="560" width="100" height="40" as="geometry" />
        </mxCell>
        <mxCell id="NHeWaSwUiM2406PgDpy3-16" value="" style="endArrow=none;html=1;rounded=0;exitX=0;exitY=0.5;exitDx=0;exitDy=0;entryX=1;entryY=0.5;entryDx=0;entryDy=0;" edge="1" parent="1" source="S-kR7vA9aXVw8Hu3PSYM-3" target="NHeWaSwUiM2406PgDpy3-2">
          <mxGeometry relative="1" as="geometry">
            <mxPoint x="270" y="40" as="sourcePoint" />
            <mxPoint x="180" y="110" as="targetPoint" />
          </mxGeometry>
        </mxCell>
        <mxCell id="NHeWaSwUiM2406PgDpy3-17" value="" style="resizable=0;html=1;whiteSpace=wrap;align=right;verticalAlign=bottom;" connectable="0" vertex="1" parent="NHeWaSwUiM2406PgDpy3-16">
          <mxGeometry x="1" relative="1" as="geometry" />
        </mxCell>
        <mxCell id="NHeWaSwUiM2406PgDpy3-18" value="" style="endArrow=none;html=1;rounded=0;exitX=1;exitY=0.5;exitDx=0;exitDy=0;entryX=0;entryY=0.5;entryDx=0;entryDy=0;" edge="1" parent="1" source="S-kR7vA9aXVw8Hu3PSYM-3">
          <mxGeometry relative="1" as="geometry">
            <mxPoint x="500" y="190" as="sourcePoint" />
            <mxPoint x="590" y="190" as="targetPoint" />
          </mxGeometry>
        </mxCell>
        <mxCell id="NHeWaSwUiM2406PgDpy3-19" value="" style="resizable=0;html=1;whiteSpace=wrap;align=right;verticalAlign=bottom;" connectable="0" vertex="1" parent="NHeWaSwUiM2406PgDpy3-18">
          <mxGeometry x="1" relative="1" as="geometry" />
        </mxCell>
        <mxCell id="S-kR7vA9aXVw8Hu3PSYM-12" value="Zona Trabajada" style="ellipse;whiteSpace=wrap;html=1;align=center;" vertex="1" parent="1">
          <mxGeometry x="80" y="630" width="100" height="40" as="geometry" />
        </mxCell>
        <mxCell id="NHeWaSwUiM2406PgDpy3-20" value="&lt;div&gt;Clientes&amp;nbsp;&lt;/div&gt;&lt;div&gt;Tajinaste Plus&lt;/div&gt;" style="whiteSpace=wrap;html=1;align=center;" vertex="1" parent="1">
          <mxGeometry x="590" y="560" width="100" height="40" as="geometry" />
        </mxCell>
        <mxCell id="NHeWaSwUiM2406PgDpy3-21" value="Productos" style="ellipse;whiteSpace=wrap;html=1;align=center;" vertex="1" parent="1">
          <mxGeometry x="70" y="95" width="100" height="40" as="geometry" />
        </mxCell>
        <mxCell id="NHeWaSwUiM2406PgDpy3-22" value="" style="endArrow=none;html=1;rounded=0;exitX=0.5;exitY=1;exitDx=0;exitDy=0;entryX=0.5;entryY=0;entryDx=0;entryDy=0;" edge="1" parent="1" source="NHeWaSwUiM2406PgDpy3-21" target="NHeWaSwUiM2406PgDpy3-2">
          <mxGeometry relative="1" as="geometry">
            <mxPoint x="40" y="135" as="sourcePoint" />
            <mxPoint x="175" y="30" as="targetPoint" />
          </mxGeometry>
        </mxCell>
        <mxCell id="NHeWaSwUiM2406PgDpy3-23" value="" style="resizable=0;html=1;whiteSpace=wrap;align=right;verticalAlign=bottom;" connectable="0" vertex="1" parent="NHeWaSwUiM2406PgDpy3-22">
          <mxGeometry x="1" relative="1" as="geometry" />
        </mxCell>
        <mxCell id="NHeWaSwUiM2406PgDpy3-24" value="" style="endArrow=none;html=1;rounded=0;exitX=0.5;exitY=0;exitDx=0;exitDy=0;entryX=0.5;entryY=1;entryDx=0;entryDy=0;" edge="1" parent="1" source="NHeWaSwUiM2406PgDpy3-2" target="S-kR7vA9aXVw8Hu3PSYM-4">
          <mxGeometry relative="1" as="geometry">
            <mxPoint x="90" y="10" as="sourcePoint" />
            <mxPoint x="185" y="40" as="targetPoint" />
          </mxGeometry>
        </mxCell>
        <mxCell id="NHeWaSwUiM2406PgDpy3-25" value="" style="resizable=0;html=1;whiteSpace=wrap;align=right;verticalAlign=bottom;" connectable="0" vertex="1" parent="NHeWaSwUiM2406PgDpy3-24">
          <mxGeometry x="1" relative="1" as="geometry" />
        </mxCell>
        <mxCell id="NHeWaSwUiM2406PgDpy3-26" value="" style="endArrow=none;html=1;rounded=0;exitX=0.5;exitY=0;exitDx=0;exitDy=0;entryX=0.5;entryY=1;entryDx=0;entryDy=0;" edge="1" parent="1" target="NHeWaSwUiM2406PgDpy3-4">
          <mxGeometry relative="1" as="geometry">
            <mxPoint x="640" y="170" as="sourcePoint" />
            <mxPoint x="265" y="50" as="targetPoint" />
          </mxGeometry>
        </mxCell>
        <mxCell id="NHeWaSwUiM2406PgDpy3-27" value="" style="resizable=0;html=1;whiteSpace=wrap;align=right;verticalAlign=bottom;" connectable="0" vertex="1" parent="NHeWaSwUiM2406PgDpy3-26">
          <mxGeometry x="1" relative="1" as="geometry" />
        </mxCell>
        <mxCell id="NHeWaSwUiM2406PgDpy3-28" value="Productos" style="ellipse;whiteSpace=wrap;html=1;align=center;" vertex="1" parent="1">
          <mxGeometry x="689.89" y="95" width="100" height="45" as="geometry" />
        </mxCell>
        <mxCell id="NHeWaSwUiM2406PgDpy3-29" value="" style="endArrow=none;html=1;rounded=0;exitX=0.5;exitY=0;exitDx=0;exitDy=0;entryX=0.5;entryY=1;entryDx=0;entryDy=0;" edge="1" parent="1" target="NHeWaSwUiM2406PgDpy3-28">
          <mxGeometry relative="1" as="geometry">
            <mxPoint x="640" y="170" as="sourcePoint" />
            <mxPoint x="650" y="150" as="targetPoint" />
          </mxGeometry>
        </mxCell>
        <mxCell id="NHeWaSwUiM2406PgDpy3-30" value="" style="resizable=0;html=1;whiteSpace=wrap;align=right;verticalAlign=bottom;" connectable="0" vertex="1" parent="NHeWaSwUiM2406PgDpy3-29">
          <mxGeometry x="1" relative="1" as="geometry" />
        </mxCell>
        <mxCell id="NHeWaSwUiM2406PgDpy3-31" value="Nombre" style="ellipse;whiteSpace=wrap;html=1;align=center;" vertex="1" parent="1">
          <mxGeometry x="740" y="167.5" width="100" height="45" as="geometry" />
        </mxCell>
        <mxCell id="NHeWaSwUiM2406PgDpy3-32" value="" style="endArrow=none;html=1;rounded=0;exitX=1;exitY=0.5;exitDx=0;exitDy=0;entryX=0;entryY=0.5;entryDx=0;entryDy=0;" edge="1" parent="1" target="NHeWaSwUiM2406PgDpy3-31">
          <mxGeometry relative="1" as="geometry">
            <mxPoint x="690" y="190" as="sourcePoint" />
            <mxPoint x="780" y="148" as="targetPoint" />
          </mxGeometry>
        </mxCell>
        <mxCell id="NHeWaSwUiM2406PgDpy3-33" value="" style="resizable=0;html=1;whiteSpace=wrap;align=right;verticalAlign=bottom;" connectable="0" vertex="1" parent="NHeWaSwUiM2406PgDpy3-32">
          <mxGeometry x="1" relative="1" as="geometry" />
        </mxCell>
        <mxCell id="NHeWaSwUiM2406PgDpy3-34" value="&lt;div&gt;Época de&lt;/div&gt;&lt;div&gt;Trabajo&lt;br&gt;&lt;/div&gt;" style="ellipse;whiteSpace=wrap;html=1;align=center;" vertex="1" parent="1">
          <mxGeometry y="370" width="100" height="40" as="geometry" />
        </mxCell>
        <mxCell id="NHeWaSwUiM2406PgDpy3-35" value="" style="endArrow=none;html=1;rounded=0;exitX=1;exitY=0.5;exitDx=0;exitDy=0;entryX=0;entryY=0.5;entryDx=0;entryDy=0;" edge="1" parent="1" source="NHeWaSwUiM2406PgDpy3-34" target="NHeWaSwUiM2406PgDpy3-53">
          <mxGeometry relative="1" as="geometry">
            <mxPoint x="-120" y="265" as="sourcePoint" />
            <mxPoint x="5" y="300" as="targetPoint" />
          </mxGeometry>
        </mxCell>
        <mxCell id="NHeWaSwUiM2406PgDpy3-36" value="" style="resizable=0;html=1;whiteSpace=wrap;align=right;verticalAlign=bottom;" connectable="0" vertex="1" parent="NHeWaSwUiM2406PgDpy3-35">
          <mxGeometry x="1" relative="1" as="geometry" />
        </mxCell>
        <mxCell id="NHeWaSwUiM2406PgDpy3-37" value="&lt;u&gt;Identificación&lt;/u&gt;" style="ellipse;whiteSpace=wrap;html=1;align=center;" vertex="1" parent="1">
          <mxGeometry x="10" y="560" width="100" height="40" as="geometry" />
        </mxCell>
        <mxCell id="NHeWaSwUiM2406PgDpy3-38" value="" style="endArrow=none;html=1;rounded=0;exitX=1;exitY=0.5;exitDx=0;exitDy=0;entryX=0;entryY=0.5;entryDx=0;entryDy=0;" edge="1" parent="1" source="NHeWaSwUiM2406PgDpy3-37" target="S-kR7vA9aXVw8Hu3PSYM-11">
          <mxGeometry relative="1" as="geometry">
            <mxPoint x="-70" y="590" as="sourcePoint" />
            <mxPoint x="-45" y="590" as="targetPoint" />
          </mxGeometry>
        </mxCell>
        <mxCell id="NHeWaSwUiM2406PgDpy3-39" value="" style="resizable=0;html=1;whiteSpace=wrap;align=right;verticalAlign=bottom;" connectable="0" vertex="1" parent="NHeWaSwUiM2406PgDpy3-38">
          <mxGeometry x="1" relative="1" as="geometry" />
        </mxCell>
        <mxCell id="NHeWaSwUiM2406PgDpy3-40" value="Zona" style="shape=ext;margin=3;double=1;whiteSpace=wrap;html=1;align=center;" vertex="1" parent="1">
          <mxGeometry x="590" y="170" width="100" height="40" as="geometry" />
        </mxCell>
        <mxCell id="NHeWaSwUiM2406PgDpy3-42" value="&lt;u&gt;DNI&lt;/u&gt;" style="ellipse;whiteSpace=wrap;html=1;align=center;" vertex="1" parent="1">
          <mxGeometry x="530" y="630" width="100" height="40" as="geometry" />
        </mxCell>
        <mxCell id="NHeWaSwUiM2406PgDpy3-43" value="" style="endArrow=none;html=1;rounded=0;exitX=0.5;exitY=0;exitDx=0;exitDy=0;entryX=0.5;entryY=1;entryDx=0;entryDy=0;" edge="1" parent="1" source="NHeWaSwUiM2406PgDpy3-42" target="NHeWaSwUiM2406PgDpy3-20">
          <mxGeometry relative="1" as="geometry">
            <mxPoint x="190" y="650" as="sourcePoint" />
            <mxPoint x="215" y="610" as="targetPoint" />
          </mxGeometry>
        </mxCell>
        <mxCell id="NHeWaSwUiM2406PgDpy3-44" value="" style="resizable=0;html=1;whiteSpace=wrap;align=right;verticalAlign=bottom;" connectable="0" vertex="1" parent="NHeWaSwUiM2406PgDpy3-43">
          <mxGeometry x="1" relative="1" as="geometry" />
        </mxCell>
        <mxCell id="4V5r-c2HELNT28u90cOD-1" value="" style="endArrow=none;html=1;rounded=0;exitX=0.5;exitY=0;exitDx=0;exitDy=0;entryX=0.5;entryY=1;entryDx=0;entryDy=0;" edge="1" parent="1" source="S-kR7vA9aXVw8Hu3PSYM-12" target="S-kR7vA9aXVw8Hu3PSYM-11">
          <mxGeometry relative="1" as="geometry">
            <mxPoint x="-70" y="650" as="sourcePoint" />
            <mxPoint x="-45" y="610" as="targetPoint" />
            <Array as="points" />
          </mxGeometry>
        </mxCell>
        <mxCell id="4V5r-c2HELNT28u90cOD-2" value="" style="resizable=0;html=1;whiteSpace=wrap;align=right;verticalAlign=bottom;" connectable="0" vertex="1" parent="4V5r-c2HELNT28u90cOD-1">
          <mxGeometry x="1" relative="1" as="geometry" />
        </mxCell>
        <mxCell id="NHeWaSwUiM2406PgDpy3-45" value="Fecha de Ingreso" style="ellipse;whiteSpace=wrap;html=1;align=center;" vertex="1" parent="1">
          <mxGeometry x="640" y="630" width="100" height="40" as="geometry" />
        </mxCell>
        <mxCell id="NHeWaSwUiM2406PgDpy3-46" value="" style="endArrow=none;html=1;rounded=0;exitX=0.5;exitY=0;exitDx=0;exitDy=0;entryX=0.5;entryY=1;entryDx=0;entryDy=0;" edge="1" parent="1" source="NHeWaSwUiM2406PgDpy3-45" target="NHeWaSwUiM2406PgDpy3-20">
          <mxGeometry relative="1" as="geometry">
            <mxPoint x="630" y="640" as="sourcePoint" />
            <mxPoint x="660" y="600" as="targetPoint" />
          </mxGeometry>
        </mxCell>
        <mxCell id="NHeWaSwUiM2406PgDpy3-47" value="" style="resizable=0;html=1;whiteSpace=wrap;align=right;verticalAlign=bottom;" connectable="0" vertex="1" parent="NHeWaSwUiM2406PgDpy3-46">
          <mxGeometry x="1" relative="1" as="geometry" />
        </mxCell>
        <mxCell id="NHeWaSwUiM2406PgDpy3-49" value="Compras Totales" style="ellipse;whiteSpace=wrap;html=1;align=center;dashed=1;" vertex="1" parent="1">
          <mxGeometry x="740" y="560" width="100" height="40" as="geometry" />
        </mxCell>
        <mxCell id="NHeWaSwUiM2406PgDpy3-50" value="" style="endArrow=none;html=1;rounded=0;exitX=0;exitY=0.5;exitDx=0;exitDy=0;entryX=1;entryY=0.5;entryDx=0;entryDy=0;" edge="1" parent="1" source="NHeWaSwUiM2406PgDpy3-49" target="NHeWaSwUiM2406PgDpy3-20">
          <mxGeometry relative="1" as="geometry">
            <mxPoint x="720" y="640" as="sourcePoint" />
            <mxPoint x="670" y="610" as="targetPoint" />
          </mxGeometry>
        </mxCell>
        <mxCell id="NHeWaSwUiM2406PgDpy3-51" value="" style="resizable=0;html=1;whiteSpace=wrap;align=right;verticalAlign=bottom;" connectable="0" vertex="1" parent="NHeWaSwUiM2406PgDpy3-50">
          <mxGeometry x="1" relative="1" as="geometry" />
        </mxCell>
        <mxCell id="4V5r-c2HELNT28u90cOD-3" value="" style="endArrow=none;html=1;rounded=0;exitX=1;exitY=0.5;exitDx=0;exitDy=0;entryX=0;entryY=0.5;entryDx=0;entryDy=0;" edge="1" parent="1" source="9exe449R4J2YQLLWnWp--1" target="jvQDZF1i_nGPoGuK2HXh-24">
          <mxGeometry relative="1" as="geometry">
            <mxPoint x="750" y="620" as="sourcePoint" />
            <mxPoint x="750" y="550" as="targetPoint" />
            <Array as="points" />
          </mxGeometry>
        </mxCell>
        <mxCell id="4V5r-c2HELNT28u90cOD-4" value="" style="resizable=0;html=1;whiteSpace=wrap;align=right;verticalAlign=bottom;" connectable="0" vertex="1" parent="4V5r-c2HELNT28u90cOD-3">
          <mxGeometry x="1" relative="1" as="geometry" />
        </mxCell>
        <mxCell id="NHeWaSwUiM2406PgDpy3-53" value="Trabaja" style="shape=rhombus;perimeter=rhombusPerimeter;whiteSpace=wrap;html=1;align=center;" vertex="1" parent="1">
          <mxGeometry x="130" y="360" width="120" height="60" as="geometry" />
        </mxCell>
        <mxCell id="NHeWaSwUiM2406PgDpy3-55" value="" style="endArrow=none;html=1;rounded=0;exitX=0.5;exitY=0;exitDx=0;exitDy=0;entryX=0.5;entryY=1;entryDx=0;entryDy=0;" edge="1" parent="1" source="NHeWaSwUiM2406PgDpy3-53" target="NHeWaSwUiM2406PgDpy3-2">
          <mxGeometry relative="1" as="geometry">
            <mxPoint x="320" y="300" as="sourcePoint" />
            <mxPoint x="260" y="300" as="targetPoint" />
          </mxGeometry>
        </mxCell>
        <mxCell id="NHeWaSwUiM2406PgDpy3-56" value="" style="resizable=0;html=1;whiteSpace=wrap;align=right;verticalAlign=bottom;" connectable="0" vertex="1" parent="NHeWaSwUiM2406PgDpy3-55">
          <mxGeometry x="1" relative="1" as="geometry" />
        </mxCell>
        <mxCell id="NHeWaSwUiM2406PgDpy3-57" value="" style="endArrow=none;html=1;rounded=0;exitX=0.5;exitY=0;exitDx=0;exitDy=0;entryX=0.5;entryY=1;entryDx=0;entryDy=0;" edge="1" parent="1" source="S-kR7vA9aXVw8Hu3PSYM-11" target="NHeWaSwUiM2406PgDpy3-53">
          <mxGeometry relative="1" as="geometry">
            <mxPoint x="150" y="330" as="sourcePoint" />
            <mxPoint x="90" y="330" as="targetPoint" />
          </mxGeometry>
        </mxCell>
        <mxCell id="NHeWaSwUiM2406PgDpy3-58" value="" style="resizable=0;html=1;whiteSpace=wrap;align=right;verticalAlign=bottom;" connectable="0" vertex="1" parent="NHeWaSwUiM2406PgDpy3-57">
          <mxGeometry x="1" relative="1" as="geometry" />
        </mxCell>
        <mxCell id="NHeWaSwUiM2406PgDpy3-61" value="Gestión" style="shape=rhombus;perimeter=rhombusPerimeter;whiteSpace=wrap;html=1;align=center;" vertex="1" parent="1">
          <mxGeometry x="355" y="550" width="120" height="60" as="geometry" />
        </mxCell>
        <mxCell id="NHeWaSwUiM2406PgDpy3-62" value="" style="endArrow=none;html=1;rounded=0;exitX=0;exitY=0.5;exitDx=0;exitDy=0;entryX=1;entryY=0.5;entryDx=0;entryDy=0;" edge="1" parent="1" source="NHeWaSwUiM2406PgDpy3-61" target="S-kR7vA9aXVw8Hu3PSYM-11">
          <mxGeometry relative="1" as="geometry">
            <mxPoint x="355" y="579.5" as="sourcePoint" />
            <mxPoint x="240" y="579.5" as="targetPoint" />
          </mxGeometry>
        </mxCell>
        <mxCell id="NHeWaSwUiM2406PgDpy3-63" value="" style="resizable=0;html=1;whiteSpace=wrap;align=right;verticalAlign=bottom;" connectable="0" vertex="1" parent="NHeWaSwUiM2406PgDpy3-62">
          <mxGeometry x="1" relative="1" as="geometry" />
        </mxCell>
        <mxCell id="NHeWaSwUiM2406PgDpy3-64" value="" style="endArrow=none;html=1;rounded=0;exitX=1;exitY=0.5;exitDx=0;exitDy=0;entryX=0;entryY=0.5;entryDx=0;entryDy=0;" edge="1" parent="1" source="NHeWaSwUiM2406PgDpy3-61" target="NHeWaSwUiM2406PgDpy3-20">
          <mxGeometry relative="1" as="geometry">
            <mxPoint x="375" y="210" as="sourcePoint" />
            <mxPoint x="260" y="210" as="targetPoint" />
          </mxGeometry>
        </mxCell>
        <mxCell id="NHeWaSwUiM2406PgDpy3-65" value="" style="resizable=0;html=1;whiteSpace=wrap;align=right;verticalAlign=bottom;" connectable="0" vertex="1" parent="NHeWaSwUiM2406PgDpy3-64">
          <mxGeometry x="1" relative="1" as="geometry" />
        </mxCell>
        <mxCell id="NHeWaSwUiM2406PgDpy3-66" value="N:1" style="text;html=1;align=center;verticalAlign=middle;resizable=0;points=[];autosize=1;strokeColor=none;fillColor=none;" vertex="1" parent="1">
          <mxGeometry x="230" y="168" width="40" height="30" as="geometry" />
        </mxCell>
        <mxCell id="NHeWaSwUiM2406PgDpy3-67" value="1:N" style="text;html=1;align=center;verticalAlign=middle;resizable=0;points=[];autosize=1;strokeColor=none;fillColor=none;" vertex="1" parent="1">
          <mxGeometry x="550" y="167.5" width="40" height="30" as="geometry" />
        </mxCell>
        <mxCell id="NHeWaSwUiM2406PgDpy3-68" value="1:1" style="text;html=1;align=center;verticalAlign=middle;resizable=0;points=[];autosize=1;strokeColor=none;fillColor=none;" vertex="1" parent="1">
          <mxGeometry x="180" y="208" width="40" height="30" as="geometry" />
        </mxCell>
        <mxCell id="NHeWaSwUiM2406PgDpy3-69" value="1:N" style="text;html=1;align=center;verticalAlign=middle;resizable=0;points=[];autosize=1;strokeColor=none;fillColor=none;" vertex="1" parent="1">
          <mxGeometry x="180" y="540" width="40" height="30" as="geometry" />
        </mxCell>
        <mxCell id="NHeWaSwUiM2406PgDpy3-70" value="gestiona" style="text;html=1;align=center;verticalAlign=middle;resizable=0;points=[];autosize=1;strokeColor=none;fillColor=none;" vertex="1" parent="1">
          <mxGeometry x="485" y="560" width="70" height="30" as="geometry" />
        </mxCell>
        <mxCell id="NHeWaSwUiM2406PgDpy3-71" value="1:N" style="text;html=1;align=center;verticalAlign=middle;resizable=0;points=[];autosize=1;strokeColor=none;fillColor=none;" vertex="1" parent="1">
          <mxGeometry x="550" y="560" width="40" height="30" as="geometry" />
        </mxCell>
        <mxCell id="NHeWaSwUiM2406PgDpy3-72" value="N:1" style="text;html=1;align=center;verticalAlign=middle;resizable=0;points=[];autosize=1;strokeColor=none;fillColor=none;" vertex="1" parent="1">
          <mxGeometry x="230" y="560" width="40" height="30" as="geometry" />
        </mxCell>
        <mxCell id="NHeWaSwUiM2406PgDpy3-73" value="es gestionado" style="text;html=1;align=center;verticalAlign=middle;resizable=0;points=[];autosize=1;strokeColor=none;fillColor=none;" vertex="1" parent="1">
          <mxGeometry x="260" y="560" width="100" height="30" as="geometry" />
        </mxCell>
        <mxCell id="NHeWaSwUiM2406PgDpy3-76" value="trabaja en" style="text;html=1;align=center;verticalAlign=middle;resizable=0;points=[];autosize=1;strokeColor=none;fillColor=none;" vertex="1" parent="1">
          <mxGeometry x="120" y="280" width="80" height="30" as="geometry" />
        </mxCell>
        <mxCell id="NHeWaSwUiM2406PgDpy3-77" value="trabajan" style="text;html=1;align=center;verticalAlign=middle;resizable=0;points=[];autosize=1;strokeColor=none;fillColor=none;" vertex="1" parent="1">
          <mxGeometry x="125" y="480" width="70" height="30" as="geometry" />
        </mxCell>
        <mxCell id="NHeWaSwUiM2406PgDpy3-79" value="posee" style="text;html=1;align=center;verticalAlign=middle;resizable=0;points=[];autosize=1;strokeColor=none;fillColor=none;" vertex="1" parent="1">
          <mxGeometry x="490" y="167.5" width="60" height="30" as="geometry" />
        </mxCell>
        <mxCell id="NHeWaSwUiM2406PgDpy3-80" value="pertenece" style="text;html=1;align=center;verticalAlign=middle;resizable=0;points=[];autosize=1;strokeColor=none;fillColor=none;" vertex="1" parent="1">
          <mxGeometry x="270" y="167.5" width="80" height="30" as="geometry" />
        </mxCell>
        <mxCell id="NHeWaSwUiM2406PgDpy3-81" value="Nombre" style="ellipse;whiteSpace=wrap;html=1;align=center;" vertex="1" parent="1">
          <mxGeometry y="167.5" width="100" height="45" as="geometry" />
        </mxCell>
        <mxCell id="NHeWaSwUiM2406PgDpy3-82" value="" style="endArrow=none;html=1;rounded=0;exitX=1;exitY=0.5;exitDx=0;exitDy=0;entryX=0;entryY=0.5;entryDx=0;entryDy=0;" edge="1" parent="1" source="NHeWaSwUiM2406PgDpy3-81" target="NHeWaSwUiM2406PgDpy3-2">
          <mxGeometry relative="1" as="geometry">
            <mxPoint x="60" y="140" as="sourcePoint" />
            <mxPoint x="200" y="180" as="targetPoint" />
          </mxGeometry>
        </mxCell>
        <mxCell id="NHeWaSwUiM2406PgDpy3-83" value="" style="resizable=0;html=1;whiteSpace=wrap;align=right;verticalAlign=bottom;" connectable="0" vertex="1" parent="NHeWaSwUiM2406PgDpy3-82">
          <mxGeometry x="1" relative="1" as="geometry" />
        </mxCell>
        <mxCell id="NHeWaSwUiM2406PgDpy3-85" value="" style="endArrow=none;html=1;rounded=0;exitX=0.5;exitY=0;exitDx=0;exitDy=0;entryX=0.5;entryY=1;entryDx=0;entryDy=0;" edge="1" parent="1" source="NHeWaSwUiM2406PgDpy3-87" target="S-kR7vA9aXVw8Hu3PSYM-11">
          <mxGeometry relative="1" as="geometry">
            <mxPoint x="250" y="630" as="sourcePoint" />
            <mxPoint x="190" y="600" as="targetPoint" />
            <Array as="points">
              <mxPoint x="210" y="610" />
            </Array>
          </mxGeometry>
        </mxCell>
        <mxCell id="NHeWaSwUiM2406PgDpy3-86" value="" style="resizable=0;html=1;whiteSpace=wrap;align=right;verticalAlign=bottom;" connectable="0" vertex="1" parent="NHeWaSwUiM2406PgDpy3-85">
          <mxGeometry x="1" relative="1" as="geometry" />
        </mxCell>
        <mxCell id="NHeWaSwUiM2406PgDpy3-87" value="Pedidos Gestionados" style="ellipse;whiteSpace=wrap;html=1;align=center;dashed=1;" vertex="1" parent="1">
          <mxGeometry x="200" y="630" width="100" height="40" as="geometry" />
        </mxCell>
        <mxCell id="jvQDZF1i_nGPoGuK2HXh-24" value="Bonificacion" style="ellipse;whiteSpace=wrap;html=1;align=center;dashed=1;" vertex="1" parent="1">
          <mxGeometry x="590" y="380" width="100" height="40" as="geometry" />
        </mxCell>
        <mxCell id="9exe449R4J2YQLLWnWp--1" value="Compra mensual" style="shape=rhombus;perimeter=rhombusPerimeter;whiteSpace=wrap;html=1;align=center;" vertex="1" parent="1">
          <mxGeometry x="415" y="370" width="115" height="60" as="geometry" />
        </mxCell>
        <mxCell id="inO2hxR4vfNhl-UiEING-1" value="" style="endArrow=none;html=1;rounded=0;exitX=0.5;exitY=0;exitDx=0;exitDy=0;entryX=1;entryY=1;entryDx=0;entryDy=0;" edge="1" parent="1" source="9exe449R4J2YQLLWnWp--1" target="NHeWaSwUiM2406PgDpy3-2">
          <mxGeometry relative="1" as="geometry">
            <mxPoint x="110" y="200" as="sourcePoint" />
            <mxPoint x="150" y="200" as="targetPoint" />
          </mxGeometry>
        </mxCell>
        <mxCell id="inO2hxR4vfNhl-UiEING-2" value="" style="resizable=0;html=1;whiteSpace=wrap;align=right;verticalAlign=bottom;" connectable="0" vertex="1" parent="inO2hxR4vfNhl-UiEING-1">
          <mxGeometry x="1" relative="1" as="geometry" />
        </mxCell>
        <mxCell id="inO2hxR4vfNhl-UiEING-3" value="" style="endArrow=none;html=1;rounded=0;exitX=0.5;exitY=0;exitDx=0;exitDy=0;entryX=0.5;entryY=1;entryDx=0;entryDy=0;" edge="1" parent="1" source="NHeWaSwUiM2406PgDpy3-20" target="9exe449R4J2YQLLWnWp--1">
          <mxGeometry relative="1" as="geometry">
            <mxPoint x="120" y="210" as="sourcePoint" />
            <mxPoint x="160" y="210" as="targetPoint" />
          </mxGeometry>
        </mxCell>
        <mxCell id="inO2hxR4vfNhl-UiEING-4" value="" style="resizable=0;html=1;whiteSpace=wrap;align=right;verticalAlign=bottom;" connectable="0" vertex="1" parent="inO2hxR4vfNhl-UiEING-3">
          <mxGeometry x="1" relative="1" as="geometry" />
        </mxCell>
        <mxCell id="inO2hxR4vfNhl-UiEING-5" value="Compra" style="text;html=1;align=center;verticalAlign=middle;resizable=0;points=[];autosize=1;strokeColor=none;fillColor=none;" vertex="1" parent="1">
          <mxGeometry x="355" y="268" width="70" height="30" as="geometry" />
        </mxCell>
        <mxCell id="inO2hxR4vfNhl-UiEING-6" value="1:N" style="text;html=1;align=center;verticalAlign=middle;resizable=0;points=[];autosize=1;strokeColor=none;fillColor=none;" vertex="1" parent="1">
          <mxGeometry x="260" y="208" width="40" height="30" as="geometry" />
        </mxCell>
        <mxCell id="inO2hxR4vfNhl-UiEING-7" value="N:N" style="text;html=1;align=center;verticalAlign=middle;resizable=0;points=[];autosize=1;strokeColor=none;fillColor=none;" vertex="1" parent="1">
          <mxGeometry x="610" y="520" width="40" height="30" as="geometry" />
        </mxCell>
        <mxCell id="inO2hxR4vfNhl-UiEING-8" value="Vende" style="text;html=1;align=center;verticalAlign=middle;resizable=0;points=[];autosize=1;strokeColor=none;fillColor=none;" vertex="1" parent="1">
          <mxGeometry x="530" y="460" width="60" height="30" as="geometry" />
        </mxCell>
        <mxCell id="inO2hxR4vfNhl-UiEING-9" value="Nombre del Producto" style="ellipse;whiteSpace=wrap;html=1;align=center;" vertex="1" parent="1">
          <mxGeometry width="100" height="40" as="geometry" />
        </mxCell>
        <mxCell id="inO2hxR4vfNhl-UiEING-10" value="Cantidad" style="ellipse;whiteSpace=wrap;html=1;align=center;" vertex="1" parent="1">
          <mxGeometry x="110" width="100" height="40" as="geometry" />
        </mxCell>
        <mxCell id="inO2hxR4vfNhl-UiEING-11" value="" style="endArrow=none;html=1;rounded=0;exitX=0.5;exitY=0;exitDx=0;exitDy=0;entryX=0.5;entryY=1;entryDx=0;entryDy=0;" edge="1" parent="1" source="NHeWaSwUiM2406PgDpy3-21" target="inO2hxR4vfNhl-UiEING-10">
          <mxGeometry relative="1" as="geometry">
            <mxPoint x="290" y="50" as="sourcePoint" />
            <mxPoint x="348" y="80" as="targetPoint" />
          </mxGeometry>
        </mxCell>
        <mxCell id="inO2hxR4vfNhl-UiEING-12" value="" style="resizable=0;html=1;whiteSpace=wrap;align=right;verticalAlign=bottom;" connectable="0" vertex="1" parent="inO2hxR4vfNhl-UiEING-11">
          <mxGeometry x="1" relative="1" as="geometry" />
        </mxCell>
        <mxCell id="inO2hxR4vfNhl-UiEING-13" value="" style="endArrow=none;html=1;rounded=0;exitX=0.5;exitY=0;exitDx=0;exitDy=0;entryX=0.5;entryY=1;entryDx=0;entryDy=0;" edge="1" parent="1" source="NHeWaSwUiM2406PgDpy3-21" target="inO2hxR4vfNhl-UiEING-9">
          <mxGeometry relative="1" as="geometry">
            <mxPoint x="300" y="60" as="sourcePoint" />
            <mxPoint x="358" y="90" as="targetPoint" />
          </mxGeometry>
        </mxCell>
        <mxCell id="inO2hxR4vfNhl-UiEING-14" value="" style="resizable=0;html=1;whiteSpace=wrap;align=right;verticalAlign=bottom;" connectable="0" vertex="1" parent="inO2hxR4vfNhl-UiEING-13">
          <mxGeometry x="1" relative="1" as="geometry" />
        </mxCell>
        <mxCell id="inO2hxR4vfNhl-UiEING-15" value="Nombre del Producto" style="ellipse;whiteSpace=wrap;html=1;align=center;" vertex="1" parent="1">
          <mxGeometry x="640" y="40" width="100" height="40" as="geometry" />
        </mxCell>
        <mxCell id="inO2hxR4vfNhl-UiEING-16" value="Cantidad" style="ellipse;whiteSpace=wrap;html=1;align=center;" vertex="1" parent="1">
          <mxGeometry x="750" y="40" width="100" height="40" as="geometry" />
        </mxCell>
        <mxCell id="inO2hxR4vfNhl-UiEING-17" value="" style="resizable=0;html=1;whiteSpace=wrap;align=right;verticalAlign=bottom;" connectable="0" vertex="1" parent="1">
          <mxGeometry x="800.1917326744615" y="79.73636757261545" as="geometry" />
        </mxCell>
        <mxCell id="inO2hxR4vfNhl-UiEING-18" value="" style="resizable=0;html=1;whiteSpace=wrap;align=right;verticalAlign=bottom;" connectable="0" vertex="1" parent="1">
          <mxGeometry x="689.886614788334" y="79.9109116194054" as="geometry" />
        </mxCell>
        <mxCell id="inO2hxR4vfNhl-UiEING-19" value="" style="endArrow=none;html=1;rounded=0;exitX=0.5;exitY=1;exitDx=0;exitDy=0;entryX=0.5;entryY=0;entryDx=0;entryDy=0;" edge="1" parent="1" source="inO2hxR4vfNhl-UiEING-15" target="NHeWaSwUiM2406PgDpy3-28">
          <mxGeometry relative="1" as="geometry">
            <mxPoint x="630" y="50" as="sourcePoint" />
            <mxPoint x="515" y="80" as="targetPoint" />
          </mxGeometry>
        </mxCell>
        <mxCell id="inO2hxR4vfNhl-UiEING-20" value="" style="resizable=0;html=1;whiteSpace=wrap;align=right;verticalAlign=bottom;" connectable="0" vertex="1" parent="inO2hxR4vfNhl-UiEING-19">
          <mxGeometry x="1" relative="1" as="geometry" />
        </mxCell>
        <mxCell id="inO2hxR4vfNhl-UiEING-21" value="" style="endArrow=none;html=1;rounded=0;exitX=0.5;exitY=1;exitDx=0;exitDy=0;entryX=0.5;entryY=0;entryDx=0;entryDy=0;" edge="1" parent="1" source="inO2hxR4vfNhl-UiEING-16" target="NHeWaSwUiM2406PgDpy3-28">
          <mxGeometry relative="1" as="geometry">
            <mxPoint x="640" y="60" as="sourcePoint" />
            <mxPoint x="525" y="90" as="targetPoint" />
          </mxGeometry>
        </mxCell>
        <mxCell id="inO2hxR4vfNhl-UiEING-22" value="" style="resizable=0;html=1;whiteSpace=wrap;align=right;verticalAlign=bottom;" connectable="0" vertex="1" parent="inO2hxR4vfNhl-UiEING-21">
          <mxGeometry x="1" relative="1" as="geometry" />
        </mxCell>
      </root>
    </mxGraphModel>
  </diagram>
</mxfile>
